<?xml version="1.0" encoding="iso-8859-1" standalone="yes"?><!-- Generator: Adobe Illustrator 26.2.1, SVG Export Plug-In . SVG Version: 6.00 Build 0)  --><svg xmlns="http://www.w3.org/2000/svg" xmlns:xlink="http://www.w3.org/1999/xlink" version="1.2" width="841.89px" height="595.276px" viewBox="0 0 841.89 595.276" xml:space="preserve" baseProfile="tiny-ps"><title>slatevc-logotype-slategrey-tiny.svg</title><polygon fill="#214869" points="329.071,268.199 329.071,275.919 388.863,275.919 329.161,337.742 329.104,350.3 395.373,281.676   395.373,350.268 403.093,350.268 403.093,268.199 "></polygon><g><path fill="#214869" d="M250.06,303.923l-22.524-3.379c-5.264-0.746-9.154-2.062-11.668-3.941c-2.528-1.88-3.785-4.59-3.785-8.126   c0-4.721,2.305-8.368,6.928-10.941c4.609-2.58,10.777-3.864,18.504-3.864c6.429,0,12.139,0.911,17.128,2.737   c4.99,1.821,9.521,4.289,13.607,7.399l-1.768-10.299c-3.117-2.357-7.216-4.158-12.31-5.389c-5.107-1.231-10.712-1.853-16.828-1.853   c-10.293,0-18.503,1.991-24.619,5.958c-6.116,3.968-9.167,9.442-9.167,16.409c0,5.258,1.847,9.527,5.553,12.794   c3.706,3.274,9.193,5.5,16.487,6.679l24.462,3.699c5.147,0.753,9.154,2.416,11.995,4.99c2.842,2.573,4.256,5.742,4.256,9.494   c0,5.899-2.514,10.463-7.556,13.678c-5.041,3.222-11.589,4.826-19.63,4.826c-6.757,0-13.121-1.041-19.08-3.137   c-5.945-2.088-11.655-5.12-17.129-9.088l1.768,10.457c9.337,6.115,20.757,9.173,34.271,9.173c10.306,0,18.858-2.304,25.667-6.921   c6.81-4.609,10.228-10.941,10.228-18.988c0-6.116-2.122-11.072-6.365-14.883C264.242,307.603,258.114,305.108,250.06,303.923"></path></g><rect x="296.235" y="243.579" fill="#214869" width="8.682" height="106.689"></rect><g><path fill="#214869" d="M451.992,243.58h-8.682v24.619h-21.398v7.727h21.398v48.597c0,8.473,2.147,15.151,6.43,20.036   c4.295,4.878,10.895,7.32,19.8,7.32c3.431,0,6.652-0.379,9.651-1.126c2.999-0.753,5.422-1.663,7.242-2.737l1.283-8.852   c-4.924,3.326-10.83,4.989-17.692,4.989c-6.01,0-10.515-1.716-13.514-5.146c-3.012-3.432-4.518-8.264-4.518-14.484v-48.597h36.693   v-7.727h-36.693V243.58z"></path><path fill="#214869" d="M515.57,290.971c2.79-5.31,6.836-9.546,12.153-12.715c5.304-3.163,11.668-4.747,19.067-4.747   c6.535,0,12.166,1.479,16.893,4.426c4.714,2.953,8.421,6.842,11.105,11.668c2.218,3.988,3.514,8.388,4.271,13.037h-67.003   C512.667,298.523,513.681,294.57,515.57,290.971 M568.594,271.898c-6.273-3.752-13.554-5.631-21.804-5.631   c-8.695,0-16.395,1.853-23.1,5.552c-6.705,3.7-11.878,8.801-15.518,15.289c-3.654,6.489-5.474,13.816-5.474,21.968   c0,7.831,1.82,15.04,5.474,21.64c3.64,6.6,8.983,11.825,16.002,15.688c7.032,3.864,15.427,5.795,25.183,5.795   c7.621,0,14.509-1.126,20.677-3.378c6.168-2.253,11.027-5.042,14.563-8.368l2.579-13.037c-4.504,5.474-9.926,9.736-16.251,12.794   c-6.338,3.058-13.357,4.584-21.084,4.584c-7.831,0-14.64-1.5-20.429-4.505c-5.801-2.999-10.253-7.209-13.357-12.631   c-3.015-5.239-4.501-11.243-4.599-17.94h76.519v-2.253c0-7.405-1.663-14.241-4.976-20.52   C579.673,280.673,574.867,275.657,568.594,271.898"></path></g><polygon fill="#214869" points="600.419,262.951 592.17,243.618 587.974,243.618 598.542,268.127 602.211,268.127 612.779,243.618   608.668,243.618 "></polygon><g><path fill="#214869" d="M636.364,260.886c-1.211,1.469-2.525,2.525-4.017,3.224c-2.975,1.375-7.057,1.445-9.901-0.202   c-1.417-0.821-2.534-1.952-3.322-3.365c-0.798-1.421-1.202-2.993-1.202-4.669c0-1.675,0.404-3.247,1.202-4.669   c0.779-1.407,1.905-2.538,3.341-3.369c1.436-0.821,3.087-1.234,4.908-1.234c1.811,0,3.397,0.338,4.721,1.004   c1.342,0.676,2.618,1.755,3.82,3.21l1.679,2.041l-0.994-6.264l-0.141-0.16c-0.967-1.07-2.262-1.91-3.857-2.496   c-1.549-0.573-3.417-0.864-5.538-0.864c-2.44,0-4.683,0.582-6.682,1.727c-1.98,1.154-3.547,2.717-4.664,4.65   c-1.108,1.938-1.68,4.097-1.68,6.424c0,2.323,0.572,4.482,1.68,6.415c1.117,1.943,2.675,3.51,4.645,4.655   c1.981,1.145,4.233,1.727,6.701,1.727c2.028,0,3.933-0.296,5.65-0.873c1.765-0.591,3.172-1.441,4.195-2.515l0.151-0.164   l0.976-6.265L636.364,260.886z"></path></g><g></g><g></g><g></g><g></g><g></g><g></g></svg>